{
  "accessors": [
    {
      "bufferView": 2,
      "componentType": 5126,
      "count": 868,
      "max": [
        6.036840438842773,
        15.892334938049316,
        0.3494361937046051
      ],
      "min": [
        -6.044646263122559,
        0.026758482679724693,
        -0.24503017961978912
      ],
      "type": "VEC3"
    },
    {
      "bufferView": 2,
      "byteOffset": 10416,
      "componentType": 5126,
      "count": 868,
      "max": [
        0.9999933242797852,
        0.9999985098838806,
        0.9999527931213379
      ],
      "min": [
        -0.9999927878379822,
        -0.9999969005584717,
        -1.0
      ],
      "type": "VEC3"
    },
    {
      "bufferView": 1,
      "componentType": 5126,
      "count": 868,
      "max": [
        0.6187751293182373,
        0.49144110083580017
      ],
      "min": [
        0.0005937851965427399,
        0.0005044341087341309
      ],
      "type": "VEC2"
    },
    {
      "bufferView": 1,
      "byteOffset": 6944,
      "componentType": 5126,
      "count": 868,
      "max": [
        0.6187751293182373,
        0.49144110083580017
      ],
      "min": [
        0.0005937851965427399,
        0.0005044341087341309
      ],
      "type": "VEC2"
    },
    {
      "bufferView": 1,
      "byteOffset": 13888,
      "componentType": 5126,
      "count": 868,
      "max": [
        0.6187751293182373,
        0.49144110083580017
      ],
      "min": [
        0.0005937851965427399,
        0.0005044341087341309
      ],
      "type": "VEC2"
    },
    {
      "bufferView": 0,
      "componentType": 5125,
      "count": 4560,
      "type": "SCALAR"
    },
    {
      "bufferView": 2,
      "byteOffset": 20832,
      "componentType": 5126,
      "count": 26,
      "max": [
        154.85629272460938,
        220.329833984375,
        154.85629272460938
      ],
      "min": [
        -154.85629272460938,
        -220.329833984375,
        -154.85629272460938
      ],
      "type": "VEC3"
    },
    {
      "bufferView": 2,
      "byteOffset": 21144,
      "componentType": 5126,
      "count": 26,
      "max": [
        1.0,
        1.0,
        1.0
      ],
      "min": [
        -1.0,
        -1.0,
        -1.0
      ],
      "type": "VEC3"
    },
    {
      "bufferView": 1,
      "byteOffset": 20832,
      "componentType": 5126,
      "count": 26,
      "max": [
        0.9124506711959839,
        0.9999988079071045
      ],
      "min": [
        2.9549002647399902e-05,
        0.00018386985175311565
      ],
      "type": "VEC2"
    },
    {
      "bufferView": 1,
      "byteOffset": 21040,
      "componentType": 5126,
      "count": 26,
      "max": [
        0.9124506711959839,
        0.9999988079071045
      ],
      "min": [
        2.9549002647399902e-05,
        0.00018386985175311565
      ],
      "type": "VEC2"
    },
    {
      "bufferView": 1,
      "byteOffset": 21248,
      "componentType": 5126,
      "count": 26,
      "max": [
        0.9124506711959839,
        0.9999988079071045
      ],
      "min": [
        2.9549002647399902e-05,
        0.00018386985175311565
      ],
      "type": "VEC2"
    },
    {
      "bufferView": 0,
      "byteOffset": 18240,
      "componentType": 5125,
      "count": 36,
      "type": "SCALAR"
    }
  ],
  "asset": {
    "extras": {
      "author": "THE 3D GUY (https://sketchfab.com/mishrau60)",
      "license": "CC-BY-4.0 (http://creativecommons.org/licenses/by/4.0/)",
      "source": "https://sketchfab.com/3d-models/mona-lisa-d5889769f4844087b5deca07d7a4dcf2",
      "title": "MONA LISA"
    },
    "generator": "Sketchfab-12.68.0",
    "version": "2.0"
  },
  "bufferViews": [
    {
      "buffer": 0,
      "byteLength": 18384,
      "name": "floatBufferViews",
      "target": 34963
    },
    {
      "buffer": 0,
      "byteLength": 21456,
      "byteOffset": 18384,
      "byteStride": 8,
      "name": "floatBufferViews",
      "target": 34962
    },
    {
      "buffer": 0,
      "byteLength": 21456,
      "byteOffset": 39840,
      "byteStride": 12,
      "name": "floatBufferViews",
      "target": 34962
    }
  ],
  "buffers": [
    {
      "byteLength": 61296,
      "uri": "scene.bin"
    }
  ],
  "extensionsRequired": [
    "KHR_materials_pbrSpecularGlossiness"
  ],
  "extensionsUsed": [
    "KHR_materials_pbrSpecularGlossiness"
  ],
  "images": [
    {
      "uri": "textures/material_diffuse.png"
    },
    {
      "uri": "textures/material_specularGlossiness.png"
    },
    {
      "uri": "textures/material_1_diffuse.png"
    },
    {
      "uri": "textures/material_1_specularGlossiness.png"
    }
  ],
  "materials": [
    {
      "doubleSided": true,
      "extensions": {
        "KHR_materials_pbrSpecularGlossiness": {
          "diffuseFactor": [
            1.0,
            1.0,
            1.0,
            1.0
          ],
          "diffuseTexture": {
            "index": 0
          },
          "glossinessFactor": 1.0,
          "specularFactor": [
            1.0,
            1.0,
            1.0
          ],
          "specularGlossinessTexture": {
            "index": 1
          }
        }
      },
      "name": "material"
    },
    {
      "doubleSided": true,
      "extensions": {
        "KHR_materials_pbrSpecularGlossiness": {
          "diffuseFactor": [
            1.0,
            1.0,
            1.0,
            1.0
          ],
          "diffuseTexture": {
            "index": 2
          },
          "glossinessFactor": 1.0,
          "specularFactor": [
            1.0,
            1.0,
            1.0
          ],
          "specularGlossinessTexture": {
            "index": 3
          }
        }
      },
      "name": "material_1"
    }
  ],
  "meshes": [
    {
      "name": "Object_0",
      "primitives": [
        {
          "attributes": {
            "NORMAL": 1,
            "POSITION": 0,
            "TEXCOORD_0": 2,
            "TEXCOORD_1": 3,
            "TEXCOORD_2": 4
          },
          "indices": 5,
          "material": 0,
          "mode": 4
        }
      ]
    },
    {
      "name": "Object_1",
      "primitives": [
        {
          "attributes": {
            "NORMAL": 7,
            "POSITION": 6,
            "TEXCOORD_0": 8,
            "TEXCOORD_1": 9,
            "TEXCOORD_2": 10
          },
          "indices": 11,
          "material": 1,
          "mode": 4
        }
      ]
    }
  ],
  "nodes": [
    {
      "children": [
        1
      ],
      "matrix": [
        1.0,
        0.0,
        0.0,
        0.0,
        0.0,
        2.220446049250313e-16,
        -1.0,
        0.0,
        0.0,
        1.0,
        2.220446049250313e-16,
        0.0,
        0.0,
        0.0,
        0.0,
        1.0
      ],
      "name": "Sketchfab_model"
    },
    {
      "children": [
        2
      ],
      "name": "root"
    },
    {
      "children": [
        3
      ],
      "matrix": [
        1.0,
        0.0,
        0.0,
        0.0,
        0.0,
        2.220446049250313e-16,
        1.0,
        0.0,
        0.0,
        -1.0,
        2.220446049250313e-16,
        0.0,
        0.0,
        0.0,
        0.0,
        1.0
      ],
      "name": "GLTF_SceneRootNode"
    },
    {
      "children": [
        4,
        7
      ],
      "name": "root_1"
    },
    {
      "children": [
        5
      ],
      "matrix": [
        6.966467272140932e-05,
        -0.0,
        -0.000683216257983299,
        0.0,
        0.0,
        0.0010000000474974513,
        0.0,
        0.0,
        0.000994841495058282,
        0.0,
        0.0001014397803815244,
        0.0,
        -0.010479278862476349,
        -0.256863534450531,
        0.2608884572982788,
        1.0
      ],
      "name": "node_id56_3"
    },
    {
      "children": [
        6
      ],
      "matrix": [
        2.060941430989379,
        1.7444207811349594e-07,
        32.205233977706,
        0.0,
        2.4674031853354567e-06,
        32.27112579345693,
        -3.326979616264501e-07,
        0.0,
        -32.20523778461605,
        2.4836126852652666e-06,
        2.060941674608732,
        0.0,
        0.0,
        0.0,
        0.0,
        1.0
      ],
      "name": "node_id34_2"
    },
    {
      "mesh": 0,
      "name": "Object_6"
    },
    {
      "children": [
        8
      ],
      "matrix": [
        6.966467272140932e-05,
        0.0,
        -0.000683216257983299,
        0.0,
        0.0,
        0.0010000000474974513,
        0.0,
        0.0,
        0.000994841495058282,
        0.0,
        0.0001014397803815244,
        0.0,
        -0.02145547606050968,
        0.005874328780919313,
        0.25659850239753723,
        1.0
      ],
      "name": "node_id55_4"
    },
    {
      "children": [
        9
      ],
      "matrix": [
        0.06386368883038886,
        5.405506273945983e-09,
        0.9979585713042849,
        -0.0,
        7.645857614682195e-08,
        0.999999999999997,
        -1.0309479055783532e-08,
        0.0,
        0.0069843945704321665,
        -5.386248057880886e-10,
        -0.0004469616418362624,
        0.0,
        0.0,
        0.0,
        0.0,
        1.0
      ],
      "name": "_0"
    },
    {
      "mesh": 1,
      "name": "Object_9"
    }
  ],
  "samplers": [
    {
      "magFilter": 9729,
      "minFilter": 9987,
      "wrapS": 10497,
      "wrapT": 10497
    }
  ],
  "scene": 0,
  "scenes": [
    {
      "name": "Sketchfab_Scene",
      "nodes": [
        0
      ]
    }
  ],
  "textures": [
    {
      "sampler": 0,
      "source": 0
    },
    {
      "sampler": 0,
      "source": 1
    },
    {
      "sampler": 0,
      "source": 2
    },
    {
      "sampler": 0,
      "source": 3
    }
  ]
}
